<?xml version="1.0" encoding="utf-8"?>
<!-- Generator: Adobe Illustrator 19.0.0, SVG Export Plug-In . SVG Version: 6.00 Build 0)  -->
<svg version="1.1" id="Camada_1" xmlns="http://www.w3.org/2000/svg" xmlns:xlink="http://www.w3.org/1999/xlink" x="0px" y="0px"
	 viewBox="0 0 200 200" style="enable-background:new 0 0 200 200;" xml:space="preserve">
<style type="text/css">
	.st0{fill:#FFFFFF;}
</style>
<g>
	<path class="st0" d="M6.3,171c1.5-3.3,2.7-6.7,4.5-9.9c26.5-46.8,53.1-93.6,79.7-140.3c1.8-3.1,4.6-4.7,8-5.5
		c0.3-0.1,0.7-0.2,1-0.3c1.1,0,2.3,0,3.4,0c2.7,0.8,5.3,1.7,7.2,3.8c0.7,0.8,1.3,1.6,1.8,2.5c26,46.6,52,93.3,78,139.9
		c1.7,3,3.4,6,3.9,9.6c1.1,8.6-5.3,16.1-14,16.1c-53.2,0-106.3,0-159.5,0c-6.7,0-12.8-4-13.9-11.3c0-0.1-0.1-0.2-0.2-0.3
		C6.3,173.9,6.3,172.5,6.3,171z M100,177.8c26.5,0,52.9,0,79.4,0c3.8,0,6.2-2.7,5.3-6.5c-0.4-1.8-1.4-3.5-2.3-5.1
		c-25.9-46.6-51.9-93.1-77.8-139.7c-0.8-1.4-1.8-2.5-3.5-2.4c-1.6,0-2.6,1-3.3,2.4c-20.6,36.3-41.3,72.7-61.9,109
		c-6.4,11.3-12.8,22.5-19.1,33.9c-2.9,5.2-0.9,8.4,5,8.4C47.8,177.8,73.9,177.8,100,177.8z"/>
	<path class="st0" d="M100,177.8c-26.1,0-52.2,0-78.3,0c-5.9,0-7.9-3.2-5-8.4c6.3-11.3,12.7-22.6,19.1-33.9
		c20.6-36.3,41.3-72.7,61.9-109c0.8-1.4,1.7-2.4,3.3-2.4c1.7,0,2.7,1,3.5,2.4c25.9,46.6,51.9,93.1,77.8,139.7
		c0.9,1.6,1.9,3.3,2.3,5.1c0.9,3.7-1.4,6.5-5.3,6.5C152.9,177.8,126.4,177.8,100,177.8z M114.7,73.2c0.5-2.2-0.8-4.3-2.9-6
		c-6.9-5.5-14.7-4.8-21.1,0.9c-1.4,1.3-2.3,2.9-2.1,5c0.4,4.2,0.8,8.4,1.1,12.6c1.1,12.8,2.1,25.6,3.2,38.4c0.4,4.6,4.2,8.2,8.8,8.3
		c4.8,0.1,8.6-3.2,9.1-7.8c0.3-2.4,0.4-4.9,0.6-7.3c0.5-6.2,0.9-12.5,1.3-18.7C113.4,90.3,114,82.1,114.7,73.2z M102.1,164
		c7,0,12.8-5.8,12.7-12.7c-0.1-7-5.9-12.8-12.8-12.7c-7,0.1-12.7,5.8-12.7,12.8C89.4,158.3,95.1,164,102.1,164z"/>
</g>
</svg>
