<?xml version="1.0" encoding="utf-8"?>
<!-- Generator: Adobe Illustrator 19.0.0, SVG Export Plug-In . SVG Version: 6.00 Build 0)  -->
<svg version="1.1" id="Camada_1" xmlns="http://www.w3.org/2000/svg" xmlns:xlink="http://www.w3.org/1999/xlink" x="0px" y="0px"
	 viewBox="0 0 200 200" style="enable-background:new 0 0 200 200;" xml:space="preserve">
<style type="text/css">
	.st0{fill:#FFFFFF;}
</style>
<g>
	<g>
		<path class="st0" d="M45.2,47c0-7,0-13.7,0-20.8c49.1,0,98.1,0,147.4,0c0,6.8,0,13.7,0,20.8C143.6,47,94.6,47,45.2,47z"/>
		<path class="st0" d="M192.7,68.4c0,7,0,13.7,0,20.8c-49.1,0-98.2,0-147.4,0c0-6.9,0-13.8,0-20.8C94.4,68.4,143.3,68.4,192.7,68.4z
			"/>
		<path class="st0" d="M45.2,131.4c0-7,0-13.7,0-20.7c49.2,0,98.2,0,147.5,0c0,6.9,0,13.7,0,20.7C143.5,131.4,94.5,131.4,45.2,131.4
			z"/>
		<path class="st0" d="M45.2,173.5c0-6.8,0-13.5,0-20.5c49.1,0,98.1,0,147.4,0c0,6.7,0,13.5,0,20.5
			C143.5,173.5,94.5,173.5,45.2,173.5z"/>
	</g>
	<rect x="7.3" y="26.2" class="st0" width="20.8" height="20.8"/>
	<rect x="7.3" y="68.4" class="st0" width="20.8" height="20.8"/>
	<rect x="7.3" y="110.7" class="st0" width="20.8" height="20.8"/>
	<rect x="7.3" y="152.9" class="st0" width="20.8" height="20.8"/>
</g>
</svg>
