<?xml version="1.0" encoding="utf-8"?>
<!-- Generator: Adobe Illustrator 19.0.0, SVG Export Plug-In . SVG Version: 6.00 Build 0)  -->
<svg version="1.1" id="Camada_1" xmlns="http://www.w3.org/2000/svg" xmlns:xlink="http://www.w3.org/1999/xlink" x="0px" y="0px"
	 viewBox="0 0 200 200" style="enable-background:new 0 0 200 200;" xml:space="preserve">
<style type="text/css">
	.st0{fill:#FFFFFF;}
</style>
<path class="st0" d="M74,126.2c-2.3,0-4,0-5.7,0c-19.6,0-39.2-0.1-58.8,0.1c-3.6,0-4.8-0.9-4.8-4.6c0.2-14.3,0.1-28.7,0.1-43
	c0-1.3,0.1-2.6,0.3-4.5c22.9,0,45.6,0,68.8,0c0-23.2,0-45.8,0-68.9c17.5,0,34.5,0,52.1,0c0,22.7,0,45.4,0,68.7c23.4,0,46.1,0,69.1,0
	c0,17.6,0,34.6,0,52.2c-2,0-3.7,0-5.4,0c-19.3,0-38.6,0.1-58-0.1c-4.3,0-5.7,0.9-5.7,5.5c0.3,19.3,0.1,38.6,0.1,58
	c0,1.7,0,3.5,0,5.5c-17.5,0-34.5,0-52.1,0C74,172.2,74,149.5,74,126.2z"/>
</svg>
