<?xml version="1.0" encoding="utf-8"?>
<!-- Generator: Adobe Illustrator 19.0.0, SVG Export Plug-In . SVG Version: 6.00 Build 0)  -->
<svg version="1.1" id="Camada_1" xmlns="http://www.w3.org/2000/svg" xmlns:xlink="http://www.w3.org/1999/xlink" x="0px" y="0px"
	 viewBox="0 0 200 200" style="enable-background:new 0 0 200 200;" xml:space="preserve">
<style type="text/css">
	.st0{fill:#FFFFFF;}
</style>
<g>
	<path class="st0" d="M194.4,94.5c0,3.9,0,7.8,0,11.8c-0.1,0.5-0.2,1.1-0.3,1.6c-1,5.8-1.6,11.6-3.1,17.3
		c-9.2,34.8-39.1,62-74.4,67.8c-3.4,0.6-6.9,1-10.3,1.4c-3.9,0-7.8,0-11.8,0c-0.5-0.1-0.9-0.2-1.4-0.3c-4.9-0.8-9.8-1.2-14.6-2.3
		c-36.2-8.4-64.5-38.6-70.6-75.2c-0.6-3.4-1-6.9-1.4-10.3c0-3.9,0-7.8,0-11.8c0.1-0.5,0.2-1.1,0.3-1.6c0.6-4.3,1-8.6,1.9-12.9
		C16.2,43.6,47.3,13.8,84,7.8c3.5-0.6,7-1,10.5-1.4c3.9,0,7.8,0,11.8,0c0.5,0.1,0.9,0.2,1.4,0.3c5.8,1,11.8,1.6,17.5,3.1
		c34.8,9.1,62,39.1,67.8,74.4C193.5,87.6,193.9,91,194.4,94.5z M112.8,125.4c0-0.9,0.1-1.5,0.1-2.2c0.3-3.2,0.3-6.7,2.4-9.3
		c1.8-2.3,4-4.4,6.4-6.2c5.5-4.1,11.3-7.7,16.6-12c13-10.5,11-31.5,1.2-40.9c-3.9-3.7-8.5-6.4-13.4-8.4c-11.8-4.7-24.1-5.6-36.6-4.2
		c-8.3,1-16.1,3.6-22.8,8.8c-9.1,7.2-12.6,17.1-13.2,28.3c9,0,17.9,0,26.7,0c0-0.5,0.1-1,0.1-1.4C80.8,70,86,63.3,93,61.6
		c5-1.2,9.9-1.1,14.9,0.1c6,1.4,9.3,5.5,10.7,11.1c1.4,5.8,0,10.8-4.7,14.7c-2.8,2.3-5.8,4.4-8.8,6.6c-3,2.3-6.2,4.4-9.1,6.8
		c-3.8,3-6.2,6.9-6.8,11.8c-0.6,4.2-1,8.4-1.5,12.8C96.3,125.4,104.5,125.4,112.8,125.4z M114.7,159.1c0-7.6,0-15.1,0-22.6
		c-9.2,0-18.3,0-27.4,0c0,7.6,0,15.1,0,22.6C96.5,159.1,105.5,159.1,114.7,159.1z"/>
</g>
</svg>
