<?xml version="1.0" encoding="utf-8"?>
<!-- Generator: Adobe Illustrator 19.0.0, SVG Export Plug-In . SVG Version: 6.00 Build 0)  -->
<svg version="1.1" id="Camada_1" xmlns="http://www.w3.org/2000/svg" xmlns:xlink="http://www.w3.org/1999/xlink" x="0px" y="0px"
	 viewBox="0 0 200 200" style="enable-background:new 0 0 200 200;" xml:space="preserve">
<style type="text/css">
	.st0{fill:#FFFFFF;}
</style>
<path class="st0" d="M95,5c4,0,8,0,12,0c0.5,0.1,1,0.2,1.4,0.3c5.5,0.9,11,1.4,16.4,2.7c36.2,8.9,64.6,39.7,70.7,76.4
	c0.6,3.5,1,7,1.5,10.5c0,4,0,8,0,12c-0.1,0.5-0.3,1.1-0.3,1.6c-0.7,9.2-2.5,18.2-6.1,26.7c-13.7,33.1-38.1,53.3-73.3,60.2
	c-3.4,0.7-6.9,1-10.3,1.4c-4,0-8,0-12,0c-0.5-0.1-1-0.2-1.4-0.3c-4.4-0.7-8.9-1.1-13.3-2c-37.3-7.8-67.7-39.5-73.8-77
	c-0.6-3.6-1-7.2-1.5-10.7c0-4,0-8,0-12c0.1-0.5,0.2-1.1,0.3-1.6c0.6-4.4,1.1-8.8,2-13.1C15,43,46.8,12.6,84.3,6.5
	C87.8,5.9,91.4,5.5,95,5z M29,100.9c-0.1,39.7,32,71.9,71.9,72.1c39.4,0.2,72-32.2,72.1-71.7c0.1-39.7-32-72.1-71.5-72.3
	C61.4,28.9,29.2,60.9,29,100.9z"/>
<path class="st0" d="M41,100.9c0.1-33.1,27-59.9,60.1-59.8c33.2,0.1,60,27.1,59.9,60.2c-0.1,33.1-27.1,59.9-60.2,59.8
	C67.7,160.9,40.9,133.9,41,100.9z M65,100.9c0,20.1,16.1,36.2,36,36.1c19.8,0,36-16.2,36-36c0-19.9-16.2-36-36.2-35.9
	C81.2,65,65,81.3,65,100.9z"/>
</svg>
