<?xml version="1.0" encoding="utf-8"?>
<!-- Generator: Adobe Illustrator 19.0.0, SVG Export Plug-In . SVG Version: 6.00 Build 0)  -->
<svg version="1.1" id="Camada_1" xmlns="http://www.w3.org/2000/svg" xmlns:xlink="http://www.w3.org/1999/xlink" x="0px" y="0px"
	 viewBox="0 0 200 200" style="enable-background:new 0 0 200 200;" xml:space="preserve">
<style type="text/css">
	.st0{fill:#FFFFFF;}
</style>
<path class="st0" d="M194,51.6c0,1.1,0,2.2,0,3.3c-0.5,0.4-1,0.8-1.5,1.3c-38.4,38.4-76.7,76.7-115.1,115.1
	c-0.8,0.8-1.8,1.4-2.8,1.8c-6.2,2.1-12.5,4-18.7,6c-8.9,2.8-17.8,5.7-26.7,8.5c-6.7,2.2-13.4,4.4-20.2,6.5c-0.9,0.2-1.3-0.2-1.1-1.1
	c1-3.2,2.1-6.3,3.1-9.5c3.3-10.4,6.6-20.8,9.9-31.3c2.5-7.9,5.1-15.8,7.5-23.7c0.5-1.8,1.4-3.2,2.7-4.5
	C69.4,85.9,107.6,47.7,145.8,9.5c0.5-0.5,0.9-1,1.3-1.5c1.1,0,2.2,0,3.3,0c0.1,0.1,0.1,0.3,0.2,0.3c7,1.2,13.3,3.9,19.1,7.8
	c4.6,3,8.7,6.7,12.3,11c3.6,4.4,6.7,9.1,8.7,14.4C192,44.7,192.9,48.2,194,51.6z M68.3,163.4C65.1,150,46.3,135,38.2,134.3
	c-0.5,1.6-1,3.2-1.5,4.9c-2.1,6.6-4.2,13.3-6.3,20c-0.2,0.7-0.1,1.9,0.4,2.4c3.2,3.3,6.4,6.6,9.7,9.8c0.4,0.4,1.3,0.7,1.8,0.5
	C51,169,59.6,166.2,68.3,163.4z"/>
</svg>
