<?xml version="1.0" encoding="utf-8"?>
<!-- Generator: Adobe Illustrator 19.0.0, SVG Export Plug-In . SVG Version: 6.00 Build 0)  -->
<svg version="1.1" id="Camada_1" xmlns="http://www.w3.org/2000/svg" xmlns:xlink="http://www.w3.org/1999/xlink" x="0px" y="0px"
	 viewBox="0 0 200 200" style="enable-background:new 0 0 200 200;" xml:space="preserve">
<style type="text/css">
	.st0{fill:#FFFFFF;}
</style>
<g>
	<path class="st0" d="M5.7,194.1c0.1-6.7,0.7-13.2,2-19.6c4-19.6,12.9-36.6,27-50.8c6.4-6.5,13.6-11.8,21.5-16.3
		c1.3-0.7,2-0.2,2.9,0.6c9.4,8,20.3,13,32.5,14.6c18.3,2.4,34.8-2.2,49.3-13.7c0.7-0.6,1.4-1.2,2.1-1.8c0.1-0.1,0.2-0.1,0.3-0.2
		c34.1,17.5,52.3,55.1,51.6,87.3C131.9,194.1,69,194.1,5.7,194.1z"/>
	<path class="st0" d="M153,59c-0.2,29.6-23.9,52.9-53.7,52.4C69.5,110.9,47,85.9,47.9,57.1c0.9-28.1,24.4-51.4,54-50.8
		C129.8,6.9,153.2,30.8,153,59z"/>
</g>
</svg>
